<svg width="29" height="30" viewBox="0 0 29 30" fill="none" xmlns="http://www.w3.org/2000/svg">
<path d="M14.5 17.4788C14.0046 17.4788 13.5938 17.0679 13.5938 16.5725V10.2288C13.5938 9.73334 14.0046 9.32251 14.5 9.32251C14.9954 9.32251 15.4063 9.73334 15.4063 10.2288V16.5725C15.4063 17.0679 14.9954 17.4788 14.5 17.4788Z" fill="#FF6C6F"/>
<path d="M14.5003 21.708C14.1741 21.708 13.872 21.5872 13.6424 21.3576C13.5336 21.2368 13.4491 21.1038 13.3766 20.9588C13.3162 20.8138 13.292 20.6567 13.292 20.4997C13.292 20.1855 13.4249 19.8713 13.6424 19.6417C14.0895 19.1946 14.9112 19.1946 15.3583 19.6417C15.5758 19.8713 15.7087 20.1855 15.7087 20.4997C15.7087 20.6567 15.6724 20.8138 15.612 20.9588C15.5516 21.1038 15.467 21.2368 15.3583 21.3576C15.1287 21.5872 14.8266 21.708 14.5003 21.708Z" fill="#FF6C6F"/>
<path d="M14.5004 28.3538C13.6908 28.3538 12.8691 28.1484 12.1441 27.7255L4.96662 23.5809C3.51662 22.7351 2.61035 21.1763 2.61035 19.4967V11.2318C2.61035 9.55219 3.51662 7.99343 4.96662 7.1476L12.1441 3.00303C13.5941 2.15719 15.3946 2.15719 16.8566 3.00303L24.0342 7.1476C25.4842 7.99343 26.3904 9.55219 26.3904 11.2318V19.4967C26.3904 21.1763 25.4842 22.7351 24.0342 23.5809L16.8566 27.7255C16.1316 28.1484 15.31 28.3538 14.5004 28.3538ZM14.5004 4.18717C14.005 4.18717 13.4975 4.3201 13.0504 4.57385L5.87287 8.71842C4.9787 9.238 4.42285 10.1926 4.42285 11.2318V19.4967C4.42285 20.5238 4.9787 21.4905 5.87287 22.0101L13.0504 26.1547C13.9445 26.6742 15.0562 26.6742 15.9383 26.1547L23.1158 22.0101C24.01 21.4905 24.5658 20.5359 24.5658 19.4967V11.2318C24.5658 10.2047 24.01 9.238 23.1158 8.71842L15.9383 4.57385C15.5033 4.3201 14.9958 4.18717 14.5004 4.18717Z" fill="#FF6C6F"/>
</svg>
