<svg width="18" height="18" viewBox="0 0 18 18" fill="none" xmlns="http://www.w3.org/2000/svg">
<path d="M15.1451 6.53489C15.1025 6.4321 15.0304 6.34423 14.9379 6.28241C14.8454 6.22058 14.7367 6.18757 14.6254 6.18755H3.37544C3.26413 6.18746 3.15529 6.2204 3.0627 6.2822C2.97012 6.34401 2.89795 6.43189 2.85534 6.53473C2.81273 6.63756 2.80159 6.75073 2.82333 6.85991C2.84507 6.96908 2.89872 7.06935 2.97747 7.14801L8.60247 12.773C8.65472 12.8253 8.71675 12.8668 8.78504 12.8951C8.85333 12.9234 8.92652 12.938 9.00044 12.938C9.07436 12.938 9.14756 12.9234 9.21585 12.8951C9.28413 12.8668 9.34617 12.8253 9.39841 12.773L15.0234 7.14801C15.1021 7.0693 15.1556 6.96904 15.1772 6.8599C15.1989 6.75077 15.1877 6.63766 15.1451 6.53489Z" fill="#E27233"/>
</svg>
