<svg width="19" height="18" viewBox="0 0 19 18" fill="none" xmlns="http://www.w3.org/2000/svg">
<path d="M15.812 11.4651C15.7695 11.5679 15.6974 11.6558 15.6049 11.7176C15.5124 11.7794 15.4037 11.8124 15.2924 11.8125H4.04244C3.93112 11.8125 3.82228 11.7796 3.7297 11.7178C3.63711 11.656 3.56495 11.5681 3.52233 11.4653C3.47972 11.3624 3.46858 11.2493 3.49032 11.1401C3.51207 11.0309 3.56571 10.9307 3.64447 10.852L9.26947 5.22699C9.32171 5.17469 9.38375 5.1332 9.45203 5.10489C9.52032 5.07658 9.59351 5.06201 9.66744 5.06201C9.74136 5.06201 9.81455 5.07658 9.88284 5.10489C9.95113 5.1332 10.0132 5.17469 10.0654 5.22699L15.6904 10.852C15.769 10.9307 15.8226 11.031 15.8442 11.1401C15.8659 11.2492 15.8547 11.3623 15.812 11.4651Z" fill="#2CC171"/>
</svg>
