<svg width="30" height="30" viewBox="0 0 30 30" fill="none" xmlns="http://www.w3.org/2000/svg">
<path d="M15 28.4375C7.5875 28.4375 1.5625 22.4125 1.5625 15C1.5625 7.5875 7.5875 1.5625 15 1.5625C22.4125 1.5625 28.4375 7.5875 28.4375 15C28.4375 22.4125 22.4125 28.4375 15 28.4375ZM15 3.4375C8.625 3.4375 3.4375 8.625 3.4375 15C3.4375 21.375 8.625 26.5625 15 26.5625C21.375 26.5625 26.5625 21.375 26.5625 15C26.5625 8.625 21.375 3.4375 15 3.4375Z" fill="white"/>
<path d="M13.2258 19.4745C12.9758 19.4745 12.7383 19.3745 12.5633 19.1995L9.02578 15.662C8.66328 15.2995 8.66328 14.6995 9.02578 14.337C9.38828 13.9745 9.98828 13.9745 10.3508 14.337L13.2258 17.212L19.6508 10.787C20.0133 10.4245 20.6133 10.4245 20.9758 10.787C21.3383 11.1495 21.3383 11.7495 20.9758 12.112L13.8883 19.1995C13.7133 19.3745 13.4758 19.4745 13.2258 19.4745Z" fill="white"/>
</svg>
